<?xml version="1.0" encoding="UTF-8" standalone="no"?>
<svg
	 xmlns:dc="http://purl.org/dc/elements/1.1/"
	 xmlns:cc="http://creativecommons.org/ns#"
	 xmlns:rdf="http://www.w3.org/1999/02/22-rdf-syntax-ns#"
	 xmlns:svg="http://www.w3.org/2000/svg"
	 xmlns="http://www.w3.org/2000/svg"
	 xmlns:sodipodi="http://sodipodi.sourceforge.net/DTD/sodipodi-0.dtd"
	 xmlns:inkscape="http://www.inkscape.org/namespaces/inkscape"
	 enable-background="new 0 0 512 512"
	 height="24"
	 id="Layer_1"
	 version="1.1"
	 viewBox="0 0 24 24"
	 width="24"
	 xml:space="preserve"
	 inkscape:version="0.91 r13725"
	 sodipodi:docname="envelopedark.svg"><metadata
		 id="metadata9"><rdf:RDF><cc:Work
				 rdf:about=""><dc:format>image/svg+xml</dc:format><dc:type
					 rdf:resource="http://purl.org/dc/dcmitype/StillImage" /><dc:title></dc:title></cc:Work></rdf:RDF></metadata><defs
		 id="defs7" /><sodipodi:namedview
		 pagecolor="#ffffff"
		 bordercolor="#666666"
		 borderopacity="1"
		 objecttolerance="10"
		 gridtolerance="10"
		 guidetolerance="10"
		 inkscape:pageopacity="0"
		 inkscape:pageshadow="2"
		 inkscape:window-width="1474"
		 inkscape:window-height="776"
		 id="namedview5"
		 showgrid="false"
		 inkscape:zoom="29.5"
		 inkscape:cx="14.420473"
		 inkscape:cy="11.806672"
		 inkscape:window-x="2032"
		 inkscape:window-y="85"
		 inkscape:window-maximized="0"
		 inkscape:current-layer="Layer_1" /><path
		 d="m 21.159582,5.522686 -18.3736002,0 -0.15935,0 -0.3867,0 -0.2663875,0 0,12.8 19.9997257,0 0,-12.8 -0.691788,0 -0.121875,0 z M 20.359607,6.3226985 12.63312,14.049148 c -0.352313,0.352313 -0.967188,0.352313 -1.319513,0 l -7.7276502,-7.7264495 16.7736502,0 z m -17.5861252,0.3187 5.19445,5.1936745 -5.19445,5.1945 0,-10.3881745 z m 0.6382625,10.8811495 5.1222122,-5.12145 2.2140385,2.213675 c 0.326962,0.327363 0.762487,0.507838 1.225375,0.507838 0.462887,0 0.898412,-0.180475 1.225375,-0.507838 l 2.214025,-2.214037 5.121812,5.121813 -17.1228377,0 z m 17.7615377,-0.492575 -5.194487,-5.19485 5.19445,-5.1948495 0,10.3896995 z"
		 id="path3"
		 inkscape:connector-curvature="0"
		 style="fill:#f9f9f9;stroke:#f9f9f9;stroke-width:0.5;stroke-miterlimit:4;stroke-dasharray:none;stroke-linejoin:round" /></svg>