<?xml version="1.0" encoding="UTF-8" standalone="no"?>
<svg
	 xmlns:dc="http://purl.org/dc/elements/1.1/"
	 xmlns:cc="http://creativecommons.org/ns#"
	 xmlns:rdf="http://www.w3.org/1999/02/22-rdf-syntax-ns#"
	 xmlns:svg="http://www.w3.org/2000/svg"
	 xmlns="http://www.w3.org/2000/svg"
	 xmlns:sodipodi="http://sodipodi.sourceforge.net/DTD/sodipodi-0.dtd"
	 xmlns:inkscape="http://www.inkscape.org/namespaces/inkscape"
	 height="24"
	 id="Layer_1"
	 version="1.1"
	 viewBox="0 0 24 24"
	 width="24"
	 xml:space="preserve"
	 inkscape:version="0.91 r13725"
	 sodipodi:docname="mappindark.svg"><metadata
		 id="metadata9"><rdf:RDF><cc:Work
				 rdf:about=""><dc:format>image/svg+xml</dc:format><dc:type
					 rdf:resource="http://purl.org/dc/dcmitype/StillImage" /><dc:title></dc:title></cc:Work></rdf:RDF></metadata><defs
		 id="defs7" /><sodipodi:namedview
		 pagecolor="#ffffff"
		 bordercolor="#666666"
		 borderopacity="1"
		 objecttolerance="10"
		 gridtolerance="10"
		 guidetolerance="10"
		 inkscape:pageopacity="0"
		 inkscape:pageshadow="2"
		 inkscape:window-width="720"
		 inkscape:window-height="480"
		 id="namedview5"
		 showgrid="false"
		 inkscape:zoom="7.375"
		 inkscape:cx="16"
		 inkscape:cy="16"
		 inkscape:window-x="1953"
		 inkscape:window-y="974"
		 inkscape:window-maximized="0"
		 inkscape:current-layer="Layer_1" /><path
		 d="m 15.532203,9.6653966 0,-5.9976 c 0,-0.66 -0.54,-1.2 -1.2,-1.2 l -4.7999996,0 c -0.66,0 -1.2,0.54 -1.2,1.2 l 0,5.9976 c -1.5684,1.1562004 -2.4,2.8404004 -2.4,3.6024004 0,0.7314 0.6096,1.2 1.2,1.2 l 3.5999996,0 0,6 c 0,0.6624 0.5376,1.2 1.2,1.2 0.6624,0 1.2,-0.5376 1.2,-1.2 l 0,-6 3.6,0 c 0.5904,0 1.2,-0.4686 1.2,-1.2 0,-0.762 -0.8316,-2.4462 -2.4,-3.6024004 z M 9.2322034,12.067797 c 0.2748,-0.3126 0.9245996,-0.7752 1.4999996,-1.2 l 0,-6.0000004 2.4,0 0,6.0000004 c 0.5754,0.4248 1.2252,0.8874 1.5,1.2 l -5.3999996,0 z"
		 id="path3"
		 inkscape:connector-curvature="0"
		 style="fill:#f9f9f9" /></svg>