<?xml version="1.0" encoding="UTF-8" standalone="no"?>
<svg
	 xmlns:dc="http://purl.org/dc/elements/1.1/"
	 xmlns:cc="http://creativecommons.org/ns#"
	 xmlns:rdf="http://www.w3.org/1999/02/22-rdf-syntax-ns#"
	 xmlns:svg="http://www.w3.org/2000/svg"
	 xmlns="http://www.w3.org/2000/svg"
	 xmlns:sodipodi="http://sodipodi.sourceforge.net/DTD/sodipodi-0.dtd"
	 xmlns:inkscape="http://www.inkscape.org/namespaces/inkscape"
	 height="24"
	 viewBox="0 0 24 24"
	 width="24"
	 id="svg2"
	 version="1.1"
	 inkscape:version="0.91 r13725"
	 sodipodi:docname="phonedark.svg">
	<metadata
		 id="metadata10">
		<rdf:RDF>
			<cc:Work
				 rdf:about="">
				<dc:format>image/svg+xml</dc:format>
				<dc:type
					 rdf:resource="http://purl.org/dc/dcmitype/StillImage" />
				<dc:title></dc:title>
			</cc:Work>
		</rdf:RDF>
	</metadata>
	<defs
		 id="defs8" />
	<sodipodi:namedview
		 pagecolor="#ffffff"
		 bordercolor="#666666"
		 borderopacity="1"
		 objecttolerance="10"
		 gridtolerance="10"
		 guidetolerance="10"
		 inkscape:pageopacity="0"
		 inkscape:pageshadow="2"
		 inkscape:window-width="1260"
		 inkscape:window-height="1052"
		 id="namedview6"
		 showgrid="false"
		 inkscape:zoom="11.9198"
		 inkscape:cx="17.469671"
		 inkscape:cy="10.995831"
		 inkscape:window-x="1759"
		 inkscape:window-y="751"
		 inkscape:window-maximized="0"
		 inkscape:current-layer="svg2" />
	<path
		 d="m 20.56032,16.807287 q 0,0.306815 -0.113635,0.801134 -0.11364,0.494319 -0.238639,0.778409 -0.238635,0.568179 -1.386358,1.204543 -1.068183,0.579544 -2.113637,0.579544 -0.306814,0 -0.596589,-0.0398 -0.289769,-0.03975 -0.653409,-0.142045 -0.363635,-0.102269 -0.539769,-0.164769 -0.176135,-0.0625 -0.630679,-0.232955 -0.45455,-0.170455 -0.556819,-0.204545 Q 12.617153,18.989074 11.742154,18.44362 10.287611,17.545896 8.7364729,15.994763 7.1853409,14.443626 6.2876169,12.989083 5.742163,12.114084 5.3444336,11.000451 5.3103337,10.898182 5.1398889,10.443632 4.9694343,9.9890882 4.9069343,9.8129532 q -0.0625,-0.176134 -0.1647697,-0.539769 -0.1022749,-0.36364 -0.1420447,-0.653409 -0.0398,-0.289775 -0.0398,-0.596589 0,-1.045453 0.579544,-2.1136367 0.636364,-1.1477232 1.204543,-1.3863578 0.28409,-0.1249998 0.778409,-0.2386396 0.494319,-0.1136348 0.801134,-0.1136348 0.15909,0 0.238639,0.0341 0.204545,0.068185 0.60227,0.8636336 0.124999,0.2159096 0.340909,0.613639 0.21591,0.3977244 0.397724,0.7215893 0.18182,0.323864 0.352275,0.607954 0.0341,0.04545 0.1988641,0.284089 0.16477,0.238635 0.244315,0.40341 0.07954,0.164769 0.07954,0.323864 0,0.22727 -0.32386,0.568179 -0.3238641,0.340909 -0.7045441,0.624999 -0.380684,0.28409 -0.704548,0.602269 -0.32386,0.3181848 -0.32386,0.5227288 0,0.10227 0.05682,0.25568 0.05682,0.15341 0.09659,0.232955 0.03975,0.07954 0.15909,0.272729 0.119315,0.19318 0.13068,0.215905 0.863634,1.556817 1.9772721,2.670451 1.113633,1.113638 2.670451,1.977272 0.0227,0.01135 0.215905,0.130679 0.193184,0.11932 0.272729,0.15909 0.07955,0.0398 0.232955,0.0966 0.15341,0.05682 0.25568,0.05682 0.204544,0 0.522728,-0.32386 0.31818,-0.323864 0.60227,-0.704548 0.28409,-0.38068 0.624998,-0.704544 0.34091,-0.32386 0.56818,-0.32386 0.159094,0 0.323864,0.07954 0.164775,0.07955 0.40341,0.244315 0.238634,0.164774 0.28409,0.198864 0.284088,0.170455 0.607953,0.352274 0.323865,0.181816 0.721589,0.397725 0.39773,0.21591 0.613639,0.34091 0.795449,0.397724 0.863634,0.602269 0.03409,0.07955 0.03409,0.23864 z"
		 id="path4"
		 inkscape:connector-curvature="0"
		 style="fill:#f9f9f9;stroke:none" />
</svg>
